<svg version="1.1" id="Layer_1" xmlns="http://www.w3.org/2000/svg" x="0" y="0" viewBox="0 0 240 234" style="enable-background:new 0 0 240 234" xml:space="preserve"><style>.st1{fill:#99f}</style><g id="Layer_2_1_"><g id="Surfaces"><g id="Video_Audio_Surface"><path d="M42.5 0h155C221 0 240 19 240 42.5v149c0 23.5-19 42.5-42.5 42.5h-155C19 234 0 215 0 191.5v-149C0 19 19 0 42.5 0z" style="fill:#00005b" id="Outline_no_shadow"/></g></g><g id="Outlined_Mnemonics_Logos"><g id="An"><path class="st1" d="M97 140H59.9l-7.6 23.5c-.2.9-1 1.5-1.9 1.4h-19c-1.1 0-1.4-.6-1.1-1.8l32.3-92.3c.3-1 .6-1.8 1-3.1.4-2.1.6-4.3.6-6.5-.1-.5.3-1 .8-1.1h26c.8 0 1.2.3 1.3.8l36.4 102.3c.3 1.1 0 1.6-1 1.6h-20.9c-.7.1-1.4-.4-1.6-1.1L97 140zm-31.3-19.9h25.4c-.6-2.1-1.4-4.6-2.3-7.2-.9-2.7-1.8-5.6-2.7-8.6-1-3.1-1.9-6.1-2.9-9.2-1-3.1-1.9-6-2.7-8.9-.8-2.8-1.5-5.4-2.2-7.8h-.2c-.9 4.3-2 8.6-3.4 12.9-1.5 4.8-3 9.8-4.6 14.8-1.4 5.1-2.9 9.8-4.4 14zM140 163.4V104c0-1.8 0-3.9-.1-6.1-.1-2.3-.1-4.4-.2-6.4s-.2-3.9-.3-5.1c-.1-.3-.1-.7.2-1 .3-.2.6-.3 1-.3h16.1c.6 0 1.1.1 1.6.3.4.2.7.6.8 1.1.2.6.5 1.4.7 2.2.3 1.1.5 2.2.6 3.3 3.1-2.7 6.7-4.8 10.6-6.2 3.9-1.3 8-2 12.1-2 3.2 0 6.4.5 9.4 1.5 7.1 2.3 12.7 7.8 15.2 14.8 1.6 4.1 2.2 9.5 2.2 16v47.3c0 1-.4 1.4-1.3 1.4l-18.8.2c-.8.1-1.5-.4-1.6-1.2V118.6c-.1-3-.7-6-1.9-8.7-.9-2-2.3-3.8-4.1-5-2.1-1.3-4.4-1.9-6.8-1.8-2.6 0-5.2.4-7.6 1.4-2.2.9-4.2 2.2-6 3.8v55.2c0 1-.4 1.4-1.3 1.4h-19c-.7.1-1.3-.4-1.4-1.1-.2-.2-.2-.3-.1-.4z"/></g></g></g></svg>